<svg width="101" height="32" viewBox="0 0 101 32" fill="none" xmlns="http://www.w3.org/2000/svg">
    <path
        d="M3.38797 24.8462C2.99649 24.8462 2.66729 24.7128 2.40038 24.4458C2.13346 24.1789 2 23.8497 2 23.4582V5.38797C2 4.9787 2.13346 4.6495 2.40038 4.40038C2.66729 4.13346 2.99649 4 3.38797 4C3.9218 4 4.33108 4.24912 4.61579 4.74737L12.5377 20.6165L20.2571 4.74737C20.5418 4.24912 20.9511 4 21.4849 4C21.8764 4 22.2056 4.13346 22.4725 4.40038C22.7394 4.6495 22.8729 4.9787 22.8729 5.38797V23.4582C22.8729 23.8497 22.7306 24.1789 22.4458 24.4458C22.1789 24.7128 21.8586 24.8462 21.4849 24.8462C21.0935 24.8462 20.7643 24.7128 20.4973 24.4458C20.2304 24.1789 20.097 23.8497 20.097 23.4582V10.1862L13.6376 23.3515C13.3351 23.8141 12.9347 24.0455 12.4365 24.0455C11.8492 24.0455 11.4222 23.7696 11.1553 23.218L4.77594 10.4348V23.4582C4.77594 23.8497 4.64248 24.1789 4.37556 24.4458C4.10864 24.7128 3.77945 24.8462 3.38797 24.8462Z"
        fill="#081B34" />
    <path fill-rule="evenodd" clip-rule="evenodd"
        d="M33.5463 24.953C32.2473 24.953 31.0817 24.6327 30.0497 23.9921C29.0176 23.3337 28.199 22.4529 27.594 21.3496C27.0068 20.2286 26.7132 18.9651 26.7132 17.5594C26.7132 16.1536 27.0335 14.8902 27.6741 13.7692C28.3325 12.6481 29.2133 11.7673 30.3166 11.1267C31.4376 10.4683 32.6921 10.1391 34.0801 10.1391C35.4681 10.1391 36.7137 10.4683 37.817 11.1267C38.9202 11.7673 39.7921 12.6481 40.4327 13.7692C41.0911 14.8902 41.4203 16.1536 41.4203 17.5594V18.7012C41.4203 18.8117 41.3308 18.9012 41.2203 18.9012H40.9228C40.5208 18.9012 40.1948 19.2271 40.1948 19.6292C40.1948 20.0312 40.5208 20.3571 40.9228 20.3571H41.2203C41.3308 20.3571 41.4203 20.4467 41.4203 20.5571V21.1277C41.4203 21.2382 41.3308 21.3277 41.2203 21.3277H40.9228C40.5208 21.3277 40.1948 21.6537 40.1948 22.0557C40.1948 22.4577 40.5208 22.7837 40.9228 22.7837H41.2203C41.3308 22.7837 41.4203 22.8732 41.4203 22.9837V23.5116C41.4203 23.9031 41.2869 24.2323 41.02 24.4992C40.7708 24.7483 40.4505 24.8729 40.0591 24.8729C39.6676 24.8729 39.3384 24.7483 39.0715 24.4992C38.8223 24.2323 38.6978 23.9031 38.6978 23.5116V22.5212C38.2307 23.096 37.679 23.5863 37.0429 23.9921C36.0108 24.6327 34.8453 24.953 33.5463 24.953ZM34.0801 22.5507C34.9876 22.5507 35.7973 22.3372 36.5091 21.9101C37.2208 21.4653 37.7814 20.8692 38.1906 20.1218C38.5999 19.3566 38.8046 18.5025 38.8046 17.5594C38.8046 16.5985 38.5999 15.7443 38.1906 14.997C37.7814 14.2318 37.2208 13.6357 36.5091 13.2086C35.7973 12.7638 34.9876 12.5413 34.0801 12.5413C33.1904 12.5413 32.3807 12.7638 31.6512 13.2086C30.9394 13.6357 30.37 14.2318 29.9429 14.997C29.5336 15.7443 29.329 16.5985 29.329 17.5594C29.329 18.5025 29.5336 19.3566 29.9429 20.1218C30.37 20.8692 30.9394 21.4653 31.6512 21.9101C32.3807 22.3372 33.1904 22.5507 34.0801 22.5507Z"
        fill="#081B34" />
    <path
        d="M46.819 24.3925C47.8866 24.7661 49.0433 24.953 50.2889 24.953C51.5523 24.953 52.6022 24.7572 53.4385 24.3658C54.2926 23.9743 54.9333 23.4493 55.3603 22.791C55.8052 22.1326 56.0276 21.3941 56.0276 20.5755C56.0276 19.8638 55.8586 19.241 55.5205 18.7071C55.1824 18.1555 54.6218 17.675 53.8389 17.2658C53.0737 16.8565 52.0239 16.5184 50.6893 16.2515C49.7284 16.0557 48.9988 15.86 48.5005 15.6643C48.0023 15.4507 47.6642 15.2194 47.4863 14.9703C47.3261 14.7034 47.246 14.4098 47.246 14.0895C47.246 13.5734 47.513 13.1819 48.0468 12.915C48.5984 12.6481 49.2657 12.5147 50.0487 12.5147C50.7249 12.5147 51.321 12.5947 51.837 12.7549C52.3531 12.915 52.8335 13.2086 53.2784 13.6357C53.5453 13.8848 53.8745 14.045 54.266 14.1162C54.6574 14.1873 54.9955 14.125 55.2802 13.9293C55.5649 13.7158 55.7162 13.4578 55.734 13.1553C55.7518 12.835 55.6361 12.5324 55.387 12.2477C54.8532 11.5893 54.1325 11.0733 53.225 10.6996C52.3175 10.3259 51.2765 10.1391 50.1021 10.1391C49.1945 10.1391 48.3226 10.2903 47.4863 10.5928C46.6499 10.8776 45.9648 11.3224 45.431 11.9274C44.8972 12.5146 44.6303 13.262 44.6303 14.1695C44.6303 15.2016 45.0306 16.0735 45.8314 16.7853C46.6499 17.4971 47.9578 18.0309 49.7551 18.3868C51.143 18.6359 52.095 18.9562 52.6111 19.3477C53.1449 19.7392 53.4029 20.2019 53.3851 20.7357C53.3673 21.2695 53.0826 21.7055 52.531 22.0436C51.9972 22.3817 51.2142 22.5507 50.1821 22.5507C49.3636 22.5507 48.6162 22.4084 47.94 22.1237C47.2816 21.8212 46.8012 21.5009 46.4987 21.1628C46.2495 20.8958 45.947 20.7446 45.5912 20.709C45.2531 20.6556 44.9061 20.7713 44.5502 21.056C44.2477 21.2873 44.0697 21.5898 44.0163 21.9635C43.9808 22.3194 44.0964 22.6397 44.3633 22.9244C44.9506 23.5116 45.7691 24.001 46.819 24.3925Z"
        fill="#081B34" />
    <path
        d="M64.2866 24.8462C63.3969 24.8462 62.5962 24.6238 61.8844 24.1789C61.1726 23.7163 60.6121 23.0935 60.2028 22.3105C59.7935 21.5275 59.5889 20.6467 59.5889 19.668V6.93609C59.5889 6.54461 59.7135 6.22431 59.9626 5.97519C60.2117 5.72606 60.532 5.6015 60.9235 5.6015C61.315 5.6015 61.6353 5.72606 61.8844 5.97519C62.1335 6.22431 62.2581 6.54461 62.2581 6.93609V10.7796H64.5269C64.9006 10.7796 65.2031 10.8863 65.4344 11.0999C65.6657 11.3134 65.7814 11.5981 65.7814 11.954C65.7814 12.2743 65.6657 12.5412 65.4344 12.7547C65.2031 12.9683 64.9006 13.075 64.5269 13.075H62.2581V19.668C62.2581 20.3798 62.4538 20.9759 62.8453 21.4564C63.2368 21.9368 63.7172 22.177 64.2866 22.177H65.1942C65.5145 22.177 65.7814 22.3016 65.9949 22.5507C66.2262 22.7999 66.3419 23.1202 66.3419 23.5116C66.3419 23.9031 66.1907 24.2234 65.8881 24.4725C65.6034 24.7217 65.2298 24.8462 64.7671 24.8462H64.2866Z"
        fill="#081B34" />
    <path
        d="M69.8338 24.4725C70.1007 24.7217 70.4299 24.8462 70.8214 24.8462C71.2306 24.8462 71.5598 24.7217 71.8089 24.4725C72.0581 24.2056 72.1826 23.8764 72.1826 23.4849V11.6071C72.1826 11.1979 72.0581 10.8687 71.8089 10.6195C71.5598 10.3704 71.2306 10.2459 70.8214 10.2459C70.4299 10.2459 70.1007 10.3704 69.8338 10.6195C69.5846 10.8687 69.4601 11.1979 69.4601 11.6071V23.4849C69.4601 23.8764 69.5846 24.2056 69.8338 24.4725Z"
        fill="#081B34" />
    <path
        d="M69.5668 7.36315C69.9227 7.70125 70.3409 7.8703 70.8214 7.8703C71.3018 7.8703 71.7111 7.70125 72.0492 7.36315C72.4051 7.00726 72.583 6.58909 72.583 6.10864C72.583 5.62819 72.4051 5.21892 72.0492 4.88083C71.7111 4.52494 71.3018 4.34699 70.8214 4.34699C70.3409 4.34699 69.9227 4.52494 69.5668 4.88083C69.2287 5.21892 69.0597 5.62819 69.0597 6.10864C69.0597 6.58909 69.2287 7.00726 69.5668 7.36315Z"
        fill="#081B34" />
    <path
        d="M78.3274 24.8462C77.9893 24.8462 77.6868 24.7217 77.4199 24.4725C77.1529 24.2234 77.0195 23.8942 77.0195 23.4849V10.3259C77.0195 9.04473 77.2686 7.93258 77.7669 6.98947C78.2829 6.04636 78.9947 5.31679 79.9022 4.80075C80.8097 4.26692 81.8596 4 83.0518 4C83.4433 4 83.7636 4.11566 84.0127 4.34699C84.2796 4.57832 84.4131 4.87193 84.4131 5.22782C84.4131 5.56591 84.2796 5.85952 84.0127 6.10864C83.7636 6.33997 83.4433 6.45564 83.0518 6.45564C82.3934 6.45564 81.8151 6.60689 81.3169 6.90939C80.8186 7.2119 80.4271 7.63007 80.1424 8.1639C79.8755 8.69774 79.7421 9.32944 79.7421 10.059V10.7796H82.4646C82.8382 10.7796 83.1407 10.8863 83.3721 11.0999C83.6034 11.3134 83.7191 11.5981 83.7191 11.954C83.7191 12.2743 83.6034 12.5412 83.3721 12.7547C83.1407 12.9683 82.8382 13.075 82.4646 13.075H79.7421V23.4849C79.7421 23.8942 79.6175 24.2234 79.3684 24.4725C79.1192 24.7217 78.7722 24.8462 78.3274 24.8462Z"
        fill="#081B34" />
    <path
        d="M89.1426 29.8398C89.3917 29.9466 89.6052 30 89.7832 30C90.2636 30 90.6106 29.7242 90.8241 29.1726L98.9918 10.8087C99.3477 10.0257 99.1253 9.46519 98.3245 9.12709C97.5593 8.80679 96.9988 9.02033 96.6429 9.76769L92.3532 19.4583L87.461 9.741C87.3008 9.40291 87.0695 9.18048 86.767 9.07371C86.4645 8.94915 86.1442 8.95805 85.8061 9.1004C85.468 9.24276 85.2278 9.47408 85.0854 9.79438C84.9609 10.0969 84.9876 10.4172 85.1655 10.7553L91.1628 22.1475L88.502 28.1583C88.1461 28.9234 88.3596 29.484 89.1426 29.8398Z"
        fill="#081B34" />
    <path
        d="M3.38797 24.8462C2.99649 24.8462 2.66729 24.7128 2.40038 24.4458C2.13346 24.1789 2 23.8497 2 23.4582V5.38797C2 4.9787 2.13346 4.6495 2.40038 4.40038C2.66729 4.13346 2.99649 4 3.38797 4C3.9218 4 4.33108 4.24912 4.61579 4.74737L12.5377 20.6165L20.2571 4.74737C20.5418 4.24912 20.9511 4 21.4849 4C21.8764 4 22.2056 4.13346 22.4725 4.40038C22.7394 4.6495 22.8729 4.9787 22.8729 5.38797V23.4582C22.8729 23.8497 22.7306 24.1789 22.4458 24.4458C22.1789 24.7128 21.8586 24.8462 21.4849 24.8462C21.0935 24.8462 20.7643 24.7128 20.4973 24.4458C20.2304 24.1789 20.097 23.8497 20.097 23.4582V10.1862L13.6376 23.3515C13.3351 23.8141 12.9347 24.0455 12.4365 24.0455C11.8492 24.0455 11.4222 23.7696 11.1553 23.218L4.77594 10.4348V23.4582C4.77594 23.8497 4.64248 24.1789 4.37556 24.4458C4.10864 24.7128 3.77945 24.8462 3.38797 24.8462Z"
        stroke="#081B34" stroke-width="0.6" />
    <path fill-rule="evenodd" clip-rule="evenodd"
        d="M33.5463 24.953C32.2473 24.953 31.0817 24.6327 30.0497 23.9921C29.0176 23.3337 28.199 22.4529 27.594 21.3496C27.0068 20.2286 26.7132 18.9651 26.7132 17.5594C26.7132 16.1536 27.0335 14.8902 27.6741 13.7692C28.3325 12.6481 29.2133 11.7673 30.3166 11.1267C31.4376 10.4683 32.6921 10.1391 34.0801 10.1391C35.4681 10.1391 36.7137 10.4683 37.817 11.1267C38.9202 11.7673 39.7921 12.6481 40.4327 13.7692C41.0911 14.8902 41.4203 16.1536 41.4203 17.5594V18.7012C41.4203 18.8117 41.3308 18.9012 41.2203 18.9012H40.9228C40.5208 18.9012 40.1948 19.2271 40.1948 19.6292C40.1948 20.0312 40.5208 20.3571 40.9228 20.3571H41.2203C41.3308 20.3571 41.4203 20.4467 41.4203 20.5571V21.1277C41.4203 21.2382 41.3308 21.3277 41.2203 21.3277H40.9228C40.5208 21.3277 40.1948 21.6537 40.1948 22.0557C40.1948 22.4577 40.5208 22.7837 40.9228 22.7837H41.2203C41.3308 22.7837 41.4203 22.8732 41.4203 22.9837V23.5116C41.4203 23.9031 41.2869 24.2323 41.02 24.4992C40.7708 24.7483 40.4505 24.8729 40.0591 24.8729C39.6676 24.8729 39.3384 24.7483 39.0715 24.4992C38.8223 24.2323 38.6978 23.9031 38.6978 23.5116V22.5212C38.2307 23.096 37.679 23.5863 37.0429 23.9921C36.0108 24.6327 34.8453 24.953 33.5463 24.953ZM34.0801 22.5507C34.9876 22.5507 35.7973 22.3372 36.5091 21.9101C37.2208 21.4653 37.7814 20.8692 38.1906 20.1218C38.5999 19.3566 38.8046 18.5025 38.8046 17.5594C38.8046 16.5985 38.5999 15.7443 38.1906 14.997C37.7814 14.2318 37.2208 13.6357 36.5091 13.2086C35.7973 12.7638 34.9876 12.5413 34.0801 12.5413C33.1904 12.5413 32.3807 12.7638 31.6512 13.2086C30.9394 13.6357 30.37 14.2318 29.9429 14.997C29.5336 15.7443 29.329 16.5985 29.329 17.5594C29.329 18.5025 29.5336 19.3566 29.9429 20.1218C30.37 20.8692 30.9394 21.4653 31.6512 21.9101C32.3807 22.3372 33.1904 22.5507 34.0801 22.5507Z"
        stroke="#081B34" stroke-width="0.6" />
    <path
        d="M46.819 24.3925C47.8866 24.7661 49.0433 24.953 50.2889 24.953C51.5523 24.953 52.6022 24.7572 53.4385 24.3658C54.2926 23.9743 54.9333 23.4493 55.3603 22.791C55.8052 22.1326 56.0276 21.3941 56.0276 20.5755C56.0276 19.8638 55.8586 19.241 55.5205 18.7071C55.1824 18.1555 54.6218 17.675 53.8389 17.2658C53.0737 16.8565 52.0239 16.5184 50.6893 16.2515C49.7284 16.0557 48.9988 15.86 48.5005 15.6643C48.0023 15.4507 47.6642 15.2194 47.4863 14.9703C47.3261 14.7034 47.246 14.4098 47.246 14.0895C47.246 13.5734 47.513 13.1819 48.0468 12.915C48.5984 12.6481 49.2657 12.5147 50.0487 12.5147C50.7249 12.5147 51.321 12.5947 51.837 12.7549C52.3531 12.915 52.8335 13.2086 53.2784 13.6357C53.5453 13.8848 53.8745 14.045 54.266 14.1162C54.6574 14.1873 54.9955 14.125 55.2802 13.9293C55.5649 13.7158 55.7162 13.4578 55.734 13.1553C55.7518 12.835 55.6361 12.5324 55.387 12.2477C54.8532 11.5893 54.1325 11.0733 53.225 10.6996C52.3175 10.3259 51.2765 10.1391 50.1021 10.1391C49.1945 10.1391 48.3226 10.2903 47.4863 10.5928C46.6499 10.8776 45.9648 11.3224 45.431 11.9274C44.8972 12.5146 44.6303 13.262 44.6303 14.1695C44.6303 15.2016 45.0306 16.0735 45.8314 16.7853C46.6499 17.4971 47.9578 18.0309 49.7551 18.3868C51.143 18.6359 52.095 18.9562 52.6111 19.3477C53.1449 19.7392 53.4029 20.2019 53.3851 20.7357C53.3673 21.2695 53.0826 21.7055 52.531 22.0436C51.9972 22.3817 51.2142 22.5507 50.1821 22.5507C49.3636 22.5507 48.6162 22.4084 47.94 22.1237C47.2816 21.8212 46.8012 21.5009 46.4987 21.1628C46.2495 20.8958 45.947 20.7446 45.5912 20.709C45.2531 20.6556 44.9061 20.7713 44.5502 21.056C44.2477 21.2873 44.0697 21.5898 44.0163 21.9635C43.9808 22.3194 44.0964 22.6397 44.3633 22.9244C44.9506 23.5116 45.7691 24.001 46.819 24.3925Z"
        stroke="#081B34" stroke-width="0.6" />
    <path
        d="M64.2866 24.8462C63.3969 24.8462 62.5962 24.6238 61.8844 24.1789C61.1726 23.7163 60.6121 23.0935 60.2028 22.3105C59.7935 21.5275 59.5889 20.6467 59.5889 19.668V6.93609C59.5889 6.54461 59.7135 6.22431 59.9626 5.97519C60.2117 5.72606 60.532 5.6015 60.9235 5.6015C61.315 5.6015 61.6353 5.72606 61.8844 5.97519C62.1335 6.22431 62.2581 6.54461 62.2581 6.93609V10.7796H64.5269C64.9006 10.7796 65.2031 10.8863 65.4344 11.0999C65.6657 11.3134 65.7814 11.5981 65.7814 11.954C65.7814 12.2743 65.6657 12.5412 65.4344 12.7547C65.2031 12.9683 64.9006 13.075 64.5269 13.075H62.2581V19.668C62.2581 20.3798 62.4538 20.9759 62.8453 21.4564C63.2368 21.9368 63.7172 22.177 64.2866 22.177H65.1942C65.5145 22.177 65.7814 22.3016 65.9949 22.5507C66.2262 22.7999 66.3419 23.1202 66.3419 23.5116C66.3419 23.9031 66.1907 24.2234 65.8881 24.4725C65.6034 24.7217 65.2298 24.8462 64.7671 24.8462H64.2866Z"
        stroke="#081B34" stroke-width="0.6" />
    <path
        d="M69.8338 24.4725C70.1007 24.7217 70.4299 24.8462 70.8214 24.8462C71.2306 24.8462 71.5598 24.7217 71.8089 24.4725C72.0581 24.2056 72.1826 23.8764 72.1826 23.4849V11.6071C72.1826 11.1979 72.0581 10.8687 71.8089 10.6195C71.5598 10.3704 71.2306 10.2459 70.8214 10.2459C70.4299 10.2459 70.1007 10.3704 69.8338 10.6195C69.5846 10.8687 69.4601 11.1979 69.4601 11.6071V23.4849C69.4601 23.8764 69.5846 24.2056 69.8338 24.4725Z"
        stroke="#081B34" stroke-width="0.6" />
    <path
        d="M69.5668 7.36315C69.9227 7.70125 70.3409 7.8703 70.8214 7.8703C71.3018 7.8703 71.7111 7.70125 72.0492 7.36315C72.4051 7.00726 72.583 6.58909 72.583 6.10864C72.583 5.62819 72.4051 5.21892 72.0492 4.88083C71.7111 4.52494 71.3018 4.34699 70.8214 4.34699C70.3409 4.34699 69.9227 4.52494 69.5668 4.88083C69.2287 5.21892 69.0597 5.62819 69.0597 6.10864C69.0597 6.58909 69.2287 7.00726 69.5668 7.36315Z"
        stroke="#081B34" stroke-width="0.6" />
    <path
        d="M78.3274 24.8462C77.9893 24.8462 77.6868 24.7217 77.4199 24.4725C77.1529 24.2234 77.0195 23.8942 77.0195 23.4849V10.3259C77.0195 9.04473 77.2686 7.93258 77.7669 6.98947C78.2829 6.04636 78.9947 5.31679 79.9022 4.80075C80.8097 4.26692 81.8596 4 83.0518 4C83.4433 4 83.7636 4.11566 84.0127 4.34699C84.2796 4.57832 84.4131 4.87193 84.4131 5.22782C84.4131 5.56591 84.2796 5.85952 84.0127 6.10864C83.7636 6.33997 83.4433 6.45564 83.0518 6.45564C82.3934 6.45564 81.8151 6.60689 81.3169 6.90939C80.8186 7.2119 80.4271 7.63007 80.1424 8.1639C79.8755 8.69774 79.7421 9.32944 79.7421 10.059V10.7796H82.4646C82.8382 10.7796 83.1407 10.8863 83.3721 11.0999C83.6034 11.3134 83.7191 11.5981 83.7191 11.954C83.7191 12.2743 83.6034 12.5412 83.3721 12.7547C83.1407 12.9683 82.8382 13.075 82.4646 13.075H79.7421V23.4849C79.7421 23.8942 79.6175 24.2234 79.3684 24.4725C79.1192 24.7217 78.7722 24.8462 78.3274 24.8462Z"
        stroke="#081B34" stroke-width="0.6" />
    <path
        d="M89.1426 29.8398C89.3917 29.9466 89.6052 30 89.7832 30C90.2636 30 90.6106 29.7242 90.8241 29.1726L98.9918 10.8087C99.3477 10.0257 99.1253 9.46519 98.3245 9.12709C97.5593 8.80679 96.9988 9.02033 96.6429 9.76769L92.3532 19.4583L87.461 9.741C87.3008 9.40291 87.0695 9.18048 86.767 9.07371C86.4645 8.94915 86.1442 8.95805 85.8061 9.1004C85.468 9.24276 85.2278 9.47408 85.0854 9.79438C84.9609 10.0969 84.9876 10.4172 85.1655 10.7553L91.1628 22.1475L88.502 28.1583C88.1461 28.9234 88.3596 29.484 89.1426 29.8398Z"
        stroke="#081B34" stroke-width="0.6" />
</svg>