<svg width="15" height="15" viewBox="0 0 15 15" fill="none" xmlns="http://www.w3.org/2000/svg">
    <path
        d="M3.84436 12.8621C5.23072 13.6644 6.86157 13.9352 8.43285 13.624C10.0041 13.3127 11.4086 12.4407 12.3844 11.1704C13.3602 9.9001 13.8407 8.31829 13.7364 6.71988C13.632 5.12147 12.9499 3.61556 11.8173 2.4829C10.6846 1.35025 9.17872 0.668172 7.58031 0.56383C5.9819 0.459488 4.40009 0.940008 3.1298 1.9158C1.85952 2.89159 0.987451 4.29605 0.676197 5.86733C0.364943 7.43861 0.635745 9.06946 1.43811 10.4558L0.578053 13.0236C0.545736 13.1205 0.541046 13.2245 0.564509 13.324C0.587972 13.4234 0.638662 13.5143 0.710896 13.5865C0.78313 13.6588 0.874054 13.7095 0.973478 13.7329C1.0729 13.7564 1.17689 13.7517 1.2738 13.7194L3.84436 12.8621Z"
        stroke="#7E8C9F" stroke-width="1.1" stroke-linecap="round" stroke-linejoin="round" />
</svg>