<svg width="22" height="22" viewBox="0 0 22 22" fill="none" xmlns="http://www.w3.org/2000/svg">
    <g>
        <path
            d="M1.83325 11.0002C1.83325 5.94016 5.93075 1.8335 10.9999 1.8335C16.0599 1.8335 20.1666 5.94016 20.1666 11.0002C20.1666 16.0693 16.0599 20.1668 10.9999 20.1668C5.93075 20.1668 1.83325 16.0693 1.83325 11.0002ZM13.0441 12.6777L14.5291 7.98433C14.5526 7.91248 14.5559 7.83556 14.5386 7.76197C14.5214 7.68837 14.4842 7.62093 14.4313 7.56701C14.3783 7.51309 14.3115 7.47476 14.2382 7.45621C14.165 7.43766 14.088 7.43961 14.0158 7.46183L9.32242 8.9285C9.12992 8.99266 8.97408 9.13933 8.91909 9.33183L7.45242 14.0343C7.35159 14.346 7.65409 14.6485 7.96575 14.5477L12.6408 13.081C12.8333 13.026 12.9891 12.8702 13.0441 12.6777Z"
            fill="currentColor" />
    </g>
</svg>