<svg width="26" height="26" viewBox="0 0 26 26" fill="none" xmlns="http://www.w3.org/2000/svg">
    <g clip-path="url(#clip0_141_162)">
        <path
            d="M10.5625 10.5625C11.9087 10.5625 13 9.47119 13 8.125C13 6.77881 11.9087 5.6875 10.5625 5.6875C9.21631 5.6875 8.125 6.77881 8.125 8.125C8.125 9.47119 9.21631 10.5625 10.5625 10.5625Z"
            stroke="#7489A6" stroke-width="1.6" stroke-linecap="round" stroke-linejoin="round" />
        <path
            d="M17.0625 20.3125C18.4087 20.3125 19.5 19.2212 19.5 17.875C19.5 16.5288 18.4087 15.4375 17.0625 15.4375C15.7163 15.4375 14.625 16.5288 14.625 17.875C14.625 19.2212 15.7163 20.3125 17.0625 20.3125Z"
            stroke="#7489A6" stroke-width="1.6" stroke-linecap="round" stroke-linejoin="round" />
        <path d="M13 8.125H21.9375" stroke="#7489A6" stroke-width="1.6" stroke-linecap="round"
            stroke-linejoin="round" />
        <path d="M4.0625 8.125H8.125" stroke="#7489A6" stroke-width="1.6" stroke-linecap="round"
            stroke-linejoin="round" />
        <path d="M19.5 17.875H21.9375" stroke="#7489A6" stroke-width="1.6" stroke-linecap="round"
            stroke-linejoin="round" />
        <path d="M4.0625 17.875H14.625" stroke="#7489A6" stroke-width="1.6" stroke-linecap="round"
            stroke-linejoin="round" />
    </g>
    <defs>
        <clipPath id="clip0_141_162">
            <rect width="26" height="26" fill="white" />
        </clipPath>
    </defs>
</svg>