<svg width="22" height="22" viewBox="0 0 22 22" fill="none" xmlns="http://www.w3.org/2000/svg">
    <path
        d="M8.37383 19.0418V16.2395C8.37383 15.5245 8.95775 14.9433 9.67825 14.9433H12.3137C12.6592 14.9433 12.992 15.0808 13.2358 15.3228C13.4806 15.5658 13.6181 15.8958 13.6181 16.2395V19.0418C13.6162 19.3397 13.7336 19.6257 13.9444 19.8365C14.1552 20.0473 14.4431 20.1665 14.7419 20.1665H16.5404C17.3787 20.1689 18.1838 19.8393 18.7798 19.2498C19.0736 18.9595 19.307 18.6138 19.4663 18.2327C19.6257 17.8516 19.708 17.4427 19.7084 17.0297V9.04459C19.7084 8.37084 19.4077 7.73284 18.888 7.30109L12.7729 2.45193C12.2562 2.03984 11.6119 1.82094 10.9511 1.83299C10.2903 1.84504 9.65435 2.08727 9.153 2.51793L3.17816 7.30109C2.90968 7.50715 2.69072 7.77068 2.53734 8.07237C2.38395 8.37406 2.30004 8.70625 2.29175 9.04459V17.0214C2.29175 18.7585 3.70983 20.1665 5.45975 20.1665H7.21608C7.83942 20.1665 8.3445 19.6678 8.34908 19.05L8.37383 19.0418Z"
        fill="currentColor" />
</svg>