<svg width="22" height="22" viewBox="0 0 22 22" fill="none" xmlns="http://www.w3.org/2000/svg">
    <g>
        <path
            d="M16.95 4H5.05C4.3737 4 3.7251 4.29632 3.24688 4.82376C2.76866 5.35121 2.5 6.06658 2.5 6.8125V16.1875C2.5 16.9334 2.76866 17.6488 3.24688 18.1762C3.7251 18.7037 4.3737 19 5.05 19H16.95C17.6263 19 18.2749 18.7037 18.7531 18.1762C19.2313 17.6488 19.5 16.9334 19.5 16.1875V6.8125C19.5 6.06658 19.2313 5.35121 18.7531 4.82376C18.2749 4.29632 17.6263 4 16.95 4ZM16.058 5.875C16.3455 5.875 16.4684 6.24029 16.2393 6.41402L11.425 10.0656C11.2958 10.1479 11.1492 10.1912 11 10.1912C10.8508 10.1912 10.7042 10.1479 10.575 10.0656L5.76066 6.41402C5.53161 6.24029 5.65447 5.875 5.94195 5.875H16.058Z"
            fill="currentColor" />
        <rect opacity="0.4" x="8" y="1.1001" width="6" height="2" rx="1" fill="currentColor" />
    </g>
</svg>