<svg width="22" height="22" viewBox="0 0 22 22" fill="currentColor"
    xmlns="http://www.w3.org/2000/svg">
    <g>
        <path
            d="M18.1224 10.6747C17.4523 9.89283 17.148 9.21541 17.148 8.06408V7.67266C17.148 6.173 16.8024 5.20683 16.0526 4.23975C14.8939 2.73825 12.9469 1.8335 11.0403 1.8335H10.9596C9.09234 1.8335 7.20584 2.697 6.02884 4.13708C5.23684 5.1225 4.85184 6.13083 4.85184 7.67266V8.06408C4.85184 9.21541 4.56767 9.89283 3.87742 10.6747C3.3705 11.2513 3.20825 11.992 3.20825 12.7922C3.20825 13.5952 3.47134 14.3552 4.00025 14.973C4.69751 15.7162 5.6436 16.1772 6.65859 16.2682C8.09867 16.4323 9.53875 16.4937 11.0008 16.4937C12.4611 16.4937 13.9012 16.3911 15.3422 16.2682C16.3572 16.1772 17.3032 15.7162 18.0005 14.973C18.5182 14.3654 18.7991 13.5914 18.7916 12.7932C18.7916 11.992 18.6293 11.2513 18.1224 10.6757V10.6747Z"
            fill="currentColor" />
        <path
            d="M12.8416 17.6256C12.3832 17.5284 9.59106 17.5284 9.13273 17.6256C8.7404 17.7173 8.31689 17.9272 8.31689 18.3883C8.33981 18.8283 8.59739 19.2179 8.95489 19.4644H8.95398C9.41041 19.8211 9.95193 20.0527 10.5251 20.1364C10.8276 20.1776 11.1356 20.1758 11.4491 20.1364C12.0156 20.0539 12.5583 19.8247 13.0194 19.4654V19.4644C13.3769 19.2169 13.6336 18.8292 13.6565 18.3883C13.6565 17.9272 13.233 17.7164 12.8406 17.6256H12.8416Z"
            fill="currentColor" />
    </g>
</svg>