<svg width="24" height="24" viewBox="0 0 24 24" fill="none" xmlns="http://www.w3.org/2000/svg">
    <path
        d="M19.1315 3.86847C19.6941 4.43108 20.0101 5.19411 20.0101 5.98972C20.0101 6.78534 19.6941 7.54837 19.1315 8.11097L7.2575 19.985C7.16367 20.0786 7.03653 20.1311 6.904 20.131H3.8685C3.60328 20.131 3.34893 20.0256 3.16139 19.8381C2.97386 19.6505 2.8685 19.3962 2.8685 19.131V16.096C2.86838 16.0303 2.88122 15.9652 2.90627 15.9044C2.93132 15.8437 2.9681 15.7885 3.0145 15.742L14.89 3.86847C15.4526 3.30606 16.2155 2.99011 17.011 2.99011C17.8065 2.99011 18.5689 3.30606 19.1315 3.86847Z"
        fill="white" />
    <rect x="16" y="14" width="5" height="2" rx="1" fill="white" fill-opacity="0.58" />
    <rect x="12" y="18" width="9" height="2" rx="1" fill="white" fill-opacity="0.84" />
</svg>